<svg width="93" height="88" viewBox="0 0 93 88" fill="none" xmlns="http://www.w3.org/2000/svg">
<path d="M13.304 19.1818L19.3764 36.9517H19.6214L25.6939 19.1818H29.2521L21.4006 41H17.5973L9.74574 19.1818H13.304ZM32.4029 41V19.1818H40.1799C41.8773 19.1818 43.2836 19.4908 44.3986 20.1087C45.5137 20.7266 46.3482 21.5717 46.9022 22.6442C47.4561 23.7095 47.7331 24.9098 47.7331 26.245C47.7331 27.5874 47.4526 28.7947 46.8915 29.8672C46.3375 30.9325 45.4995 31.7777 44.3773 32.4027C43.2623 33.0206 41.8596 33.3295 40.1692 33.3295H34.8212V30.5384H39.8709C40.9434 30.5384 41.8134 30.3537 42.481 29.9844C43.1486 29.608 43.6387 29.0966 43.9512 28.4503C44.2637 27.804 44.4199 27.0689 44.4199 26.245C44.4199 25.4212 44.2637 24.6896 43.9512 24.0504C43.6387 23.4112 43.1451 22.9105 42.4703 22.5483C41.8027 22.1861 40.9221 22.005 39.8283 22.005H35.6948V41H32.4029ZM51.5923 19.1818H55.5874L62.5334 36.142H62.7891L69.7351 19.1818H73.7301V41H70.598V25.2116H70.3956L63.9609 40.968H61.3615L54.9268 25.201H54.7244V41H51.5923V19.1818Z" fill="black"/>
<line x1="7" y1="45.85" x2="85" y2="45.85" stroke="black" stroke-width="0.3"/>
<path d="M16.1591 64V50.1818H20.4773C21.2509 50.1818 21.9122 50.3235 22.4609 50.6069C23.0142 50.8858 23.437 51.2884 23.7294 51.8146C24.0263 52.3364 24.1747 52.9616 24.1747 53.6903C24.1747 54.2301 24.0915 54.7272 23.9251 55.1815C23.7631 55.6358 23.5247 56.0181 23.2099 56.3285C22.895 56.6344 22.5149 56.8435 22.0696 56.956V57.0099C22.5689 57.0504 23.0187 57.2236 23.419 57.5295C23.8194 57.8353 24.1342 58.2402 24.3636 58.744C24.5975 59.2478 24.7145 59.8213 24.7145 60.4645C24.7145 61.1752 24.5638 61.7959 24.2624 62.3267C23.9656 62.8575 23.5337 63.2691 22.967 63.5614C22.4047 63.8538 21.7277 64 20.9361 64H16.1591ZM16.5909 63.5682H20.9361C21.9482 63.5682 22.7578 63.2848 23.3651 62.718C23.9768 62.1468 24.2827 61.3956 24.2827 60.4645C24.2827 59.8258 24.1387 59.2612 23.8509 58.771C23.563 58.2807 23.1671 57.8961 22.6634 57.6172C22.1641 57.3383 21.5883 57.1989 20.9361 57.1989H16.5909V63.5682ZM16.5909 56.767H20.9361C21.5658 56.767 22.0876 56.6254 22.5014 56.342C22.9152 56.0586 23.2256 55.683 23.4325 55.2152C23.6394 54.7474 23.7429 54.2391 23.7429 53.6903C23.7429 52.7098 23.4505 51.9518 22.8658 51.4165C22.281 50.8813 21.4848 50.6136 20.4773 50.6136H16.5909V56.767ZM30.9089 50.1818V64H30.4771V50.1818H30.9089ZM40.7181 64.2159C39.904 64.2159 39.173 63.982 38.5253 63.5142C37.8776 63.0419 37.3648 62.4009 36.987 61.5913C36.6136 60.7771 36.427 59.8617 36.427 58.8452C36.427 57.8241 36.6136 56.9087 36.987 56.0991C37.3648 55.2894 37.8776 54.6507 38.5253 54.1829C39.173 53.7106 39.904 53.4744 40.7181 53.4744C41.5323 53.4744 42.261 53.7106 42.9042 54.1829C43.552 54.6552 44.0647 55.2962 44.4426 56.1058C44.8204 56.9155 45.0093 57.8286 45.0093 58.8452C45.0093 59.8617 44.8204 60.7771 44.4426 61.5913C44.0692 62.4009 43.5587 63.0419 42.911 63.5142C42.2632 63.982 41.5323 64.2159 40.7181 64.2159ZM40.7181 63.7841C41.4513 63.7841 42.1081 63.5682 42.6883 63.1364C43.2731 62.7045 43.7341 62.1153 44.0715 61.3686C44.4088 60.6219 44.5775 59.7808 44.5775 58.8452C44.5775 57.9096 44.4066 57.0707 44.0647 56.3285C43.7274 55.5818 43.2686 54.9925 42.6883 54.5607C42.1081 54.1244 41.4513 53.9062 40.7181 53.9062C39.9895 53.9062 39.3327 54.1244 38.748 54.5607C38.1677 54.9925 37.7067 55.5818 37.3648 56.3285C37.0274 57.0707 36.8588 57.9096 36.8588 58.8452C36.8588 59.7808 37.0274 60.6219 37.3648 61.3686C37.7022 62.1153 38.161 62.7045 38.7412 63.1364C39.326 63.5682 39.985 63.7841 40.7181 63.7841ZM54.0291 68.1023C53.4489 68.1023 52.9136 68.0236 52.4233 67.8661C51.933 67.7132 51.5102 67.4815 51.1549 67.1712C50.7995 66.8653 50.5341 66.483 50.3587 66.0241L50.7635 65.8622C50.9209 66.267 51.1549 66.6022 51.4652 66.8675C51.7801 67.1374 52.1557 67.3376 52.592 67.468C53.0328 67.603 53.5119 67.6705 54.0291 67.6705C55.1087 67.6705 55.9498 67.3848 56.5526 66.8136C57.1553 66.2468 57.4567 65.3809 57.4567 64.2159V61.4091H57.4027C57.2228 61.9848 56.9552 62.4661 56.5998 62.853C56.2445 63.2353 55.8329 63.5232 55.3651 63.7166C54.8973 63.9055 54.407 64 53.8942 64C53.0845 64 52.3806 63.7818 51.7823 63.3455C51.1841 62.9092 50.7208 62.3042 50.3924 61.5305C50.0641 60.7569 49.8999 59.8617 49.8999 58.8452C49.8999 57.8196 50.0618 56.902 50.3857 56.0923C50.7095 55.2827 51.1706 54.6439 51.7688 54.1761C52.3671 53.7083 53.0755 53.4744 53.8942 53.4744C54.452 53.4744 54.9602 53.5891 55.4191 53.8185C55.8779 54.0434 56.2759 54.3673 56.6133 54.7901C56.9507 55.2085 57.2138 55.7055 57.4027 56.2812H57.4567V53.6364H57.8885V64.2159C57.8885 65.0661 57.7333 65.779 57.423 66.3548C57.1126 66.935 56.6695 67.3713 56.0938 67.6637C55.518 67.9561 54.8298 68.1023 54.0291 68.1023ZM53.8942 63.5682C54.6139 63.5682 55.2391 63.377 55.7699 62.9947C56.3052 62.6123 56.719 62.0681 57.0114 61.3619C57.3083 60.6512 57.4567 59.8123 57.4567 58.8452C57.4567 57.9096 57.3128 57.0707 57.0249 56.3285C56.737 55.5818 56.3254 54.9925 55.7901 54.5607C55.2594 54.1244 54.6274 53.9062 53.8942 53.9062C53.161 53.9062 52.5268 54.1244 51.9915 54.5607C51.4607 54.9925 51.0514 55.5818 50.7635 56.3285C50.4756 57.0707 50.3317 57.9096 50.3317 58.8452C50.3317 59.7808 50.4756 60.6039 50.7635 61.3146C51.0559 62.0208 51.4675 62.5741 51.9982 62.9744C52.5335 63.3703 53.1655 63.5682 53.8942 63.5682ZM70.2937 55.8224L69.8619 55.9304C69.7224 55.4806 69.5268 55.1072 69.2749 54.8104C69.0275 54.509 68.7239 54.2841 68.364 54.1357C68.0042 53.9827 67.5858 53.9062 67.109 53.9062C66.2814 53.9062 65.6112 54.1177 65.0984 54.5405C64.5856 54.9588 64.3292 55.5121 64.3292 56.2003C64.3292 56.7446 64.5024 57.2011 64.8488 57.57C65.1996 57.9388 65.7281 58.2109 66.4343 58.3864L68.0537 58.7912C68.8138 58.9801 69.3896 59.2995 69.7809 59.7493C70.1768 60.1991 70.3747 60.7434 70.3747 61.3821C70.3747 61.9444 70.2262 62.4392 69.9294 62.8665C69.637 63.2938 69.2322 63.6267 68.7149 63.8651C68.1976 64.099 67.5993 64.2159 66.9201 64.2159C65.998 64.2159 65.2446 63.991 64.6598 63.5412C64.0751 63.0914 63.695 62.4527 63.5196 61.625L63.9514 61.517C64.1043 62.2502 64.4304 62.8125 64.9297 63.2038C65.4335 63.5907 66.097 63.7841 66.9201 63.7841C67.8198 63.7841 68.5484 63.5637 69.1062 63.1229C69.664 62.6821 69.9429 62.1018 69.9429 61.3821C69.9429 60.8468 69.7764 60.3948 69.4436 60.0259C69.1107 59.6571 68.6114 59.3894 67.9457 59.223L66.3264 58.8182C65.5302 58.6203 64.9252 58.2964 64.5114 57.8466C64.1021 57.3968 63.8974 56.848 63.8974 56.2003C63.8974 55.656 64.0323 55.1815 64.3022 54.7766C64.5766 54.3673 64.9545 54.0479 65.4358 53.8185C65.9215 53.5891 66.4793 53.4744 67.109 53.4744C67.9097 53.4744 68.5777 53.6723 69.113 54.0682C69.6482 54.4595 70.0418 55.0443 70.2937 55.8224Z" fill="black"/>
</svg>
